<svg xmlns="http://www.w3.org/2000/svg" viewBox="0 0 244.6 245.11"><defs><style>.cls-1{fill:#002236;}.cls-2{fill:#fcfcfc;}</style></defs><g id="Camada_1" data-name="Camada 1"><rect class="cls-1" width="244.6" height="245.11" rx="13.53"/></g><g id="Camada_3" data-name="Camada 3"><path class="cls-2" d="M128.61,54.54C86.87,54.54,53,89.06,53,131.64s33.83,77.11,75.57,77.11,75.58-34.52,75.58-77.11S170.35,54.54,128.61,54.54ZM129,196c-35.6,0-64.46-29.2-64.46-65.23S93.39,65.51,129,65.51s64.47,29.21,64.47,65.24S164.6,196,129,196Z" transform="translate(-5.04 -8.33)"/><path class="cls-2" d="M128.61,54.54C86.87,54.54,53,89.06,53,131.64s33.83,77.11,75.57,77.11,75.58-34.52,75.58-77.11S170.35,54.54,128.61,54.54ZM129,196c-35.6,0-64.46-29.2-64.46-65.23S93.39,65.51,129,65.51s64.47,29.21,64.47,65.24S164.6,196,129,196Z" transform="translate(-5.04 -8.33)"/><path class="cls-2" d="M128.61,54.29C86.87,54.29,53,88.81,53,131.39s33.83,77.11,75.57,77.11,75.58-34.52,75.58-77.11S170.35,54.29,128.61,54.29ZM129,195.73c-35.6,0-64.46-29.2-64.46-65.23S93.39,65.26,129,65.26s64.47,29.21,64.47,65.24S164.6,195.73,129,195.73Z" transform="translate(-5.04 -8.33)"/></g></svg>